<?xml version="1.0" encoding="UTF-8" standalone="no"?>
<svg
   xmlns:dc="http://purl.org/dc/elements/1.1/"
   xmlns:cc="http://creativecommons.org/ns#"
   xmlns:rdf="http://www.w3.org/1999/02/22-rdf-syntax-ns#"
   xmlns:svg="http://www.w3.org/2000/svg"
   xmlns="http://www.w3.org/2000/svg"
   xmlns:sodipodi="http://sodipodi.sourceforge.net/DTD/sodipodi-0.dtd"
   xmlns:inkscape="http://www.inkscape.org/namespaces/inkscape"
   viewBox="0 0 494.26669 280.41028"
   version="1.1"
   id="svg188"
   sodipodi:docname="trips2013-change.svg"
   inkscape:version="0.92.4 (5da689c313, 2019-01-14)"
   width="494.26669"
   height="280.41028">
  <metadata
     id="metadata192">
    <rdf:RDF>
      <cc:Work
         rdf:about="">
        <dc:format>image/svg+xml</dc:format>
        <dc:type
           rdf:resource="http://purl.org/dc/dcmitype/StillImage" />
      </cc:Work>
    </rdf:RDF>
  </metadata>
  <sodipodi:namedview
     pagecolor="#ffffff"
     bordercolor="#666666"
     borderopacity="1"
     objecttolerance="10"
     gridtolerance="10"
     guidetolerance="10"
     inkscape:pageopacity="0"
     inkscape:pageshadow="2"
     inkscape:window-width="1920"
     inkscape:window-height="1043"
     id="namedview190"
     showgrid="false"
     inkscape:zoom="1.5"
     inkscape:cx="248.01067"
     inkscape:cy="128.41026"
     inkscape:window-x="0"
     inkscape:window-y="0"
     inkscape:window-maximized="1"
     inkscape:current-layer="svg188"
     inkscape:snap-page="true" />
  <defs
     id="defs4">
    <style
       type="text/css"
       id="style2"><![CDATA[
    line, polyline, path, rect, circle {
      fill: none;
      stroke: #000000;
      stroke-linecap: round;
      stroke-linejoin: round;
      stroke-miterlimit: 10.00;
    }
  ]]></style>
  </defs>
  <rect
     width="101.28257%"
     height="101.01759%"
     style="fill:#ffffff;stroke:none;stroke-width:0.99999994;stroke-linecap:round;stroke-linejoin:round;stroke-miterlimit:10"
     id="rect6"
     x="0"
     y="0" />
  <line
     x1="28.799999"
     y1="248.94"
     x2="28.799999"
     y2="44.139999"
     style="fill:none;stroke:#000000;stroke-width:0.75;stroke-linecap:round;stroke-linejoin:round;stroke-miterlimit:10"
     id="line8" />
  <line
     x1="28.799999"
     y1="248.94"
     x2="21.6"
     y2="248.94"
     style="fill:none;stroke:#000000;stroke-width:0.75;stroke-linecap:round;stroke-linejoin:round;stroke-miterlimit:10"
     id="line10" />
  <line
     x1="28.799999"
     y1="207.98"
     x2="21.6"
     y2="207.98"
     style="fill:none;stroke:#000000;stroke-width:0.75;stroke-linecap:round;stroke-linejoin:round;stroke-miterlimit:10"
     id="line12" />
  <line
     x1="28.799999"
     y1="167.02"
     x2="21.6"
     y2="167.02"
     style="fill:none;stroke:#000000;stroke-width:0.75;stroke-linecap:round;stroke-linejoin:round;stroke-miterlimit:10"
     id="line14" />
  <line
     x1="28.799999"
     y1="126.06001"
     x2="21.6"
     y2="126.06001"
     style="fill:none;stroke:#000000;stroke-width:0.75;stroke-linecap:round;stroke-linejoin:round;stroke-miterlimit:10"
     id="line16" />
  <line
     x1="28.799999"
     y1="85.099998"
     x2="21.6"
     y2="85.099998"
     style="fill:none;stroke:#000000;stroke-width:0.75;stroke-linecap:round;stroke-linejoin:round;stroke-miterlimit:10"
     id="line18" />
  <line
     x1="28.799999"
     y1="44.139999"
     x2="21.6"
     y2="44.139999"
     style="fill:none;stroke:#000000;stroke-width:0.75;stroke-linecap:round;stroke-linejoin:round;stroke-miterlimit:10"
     id="line20" />
  <g
     id="g1005"
     transform="translate(5.9999998)">
    <text
       id="text22"
       lengthAdjust="spacingAndGlyphs"
       textLength="17.34"
       style="font-size:12px;font-family:'Liberation Sans'"
       y="253.07001"
       x="-2.9400001">-20</text>
    <text
       id="text24"
       lengthAdjust="spacingAndGlyphs"
       textLength="17.34"
       style="font-size:12px;font-family:'Liberation Sans'"
       y="212.11"
       x="-2.9400001">-15</text>
    <text
       id="text26"
       lengthAdjust="spacingAndGlyphs"
       textLength="17.34"
       style="font-size:12px;font-family:'Liberation Sans'"
       y="171.14999"
       x="-2.9400001">-10</text>
    <text
       id="text28"
       lengthAdjust="spacingAndGlyphs"
       textLength="10.67"
       style="font-size:12px;font-family:'Liberation Sans'"
       y="130.17999"
       x="3.73">-5</text>
    <text
       id="text30"
       lengthAdjust="spacingAndGlyphs"
       textLength="6.6700001"
       style="font-size:12px;font-family:'Liberation Sans'"
       y="89.220001"
       x="7.73">0</text>
    <text
       id="text32"
       lengthAdjust="spacingAndGlyphs"
       textLength="6.6700001"
       style="font-size:12px;font-family:'Liberation Sans'"
       y="48.259998"
       x="7.73">5</text>
  </g>
  <defs
     id="defs37">
    <clipPath
       id="cpMjguOHw0ODkuNnwyNTkuMnwxNC40">
      <rect
         x="28.799999"
         y="14.4"
         width="460.79999"
         height="244.8"
         id="rect34"
         style="fill:none;stroke:#000000;stroke-linecap:round;stroke-linejoin:round;stroke-miterlimit:10" />
    </clipPath>
  </defs>
  <polyline
     points="28.80,69.00 33.65,63.31 38.50,84.98 43.35,125.34 48.20,130.66 53.05,108.43 57.90,115.91 62.75,102.41 67.60,122.40 72.45,101.92 77.31,99.31 82.16,102.80 87.01,118.16 91.86,125.11 96.71,119.84 101.56,114.51 106.41,123.72 111.26,114.88 116.11,116.71 120.96,110.32 125.81,130.18 130.66,105.71 135.51,117.01 140.36,120.86 145.21,142.25 150.06,123.90 154.91,108.30 159.76,121.87 164.61,111.06 169.47,110.42 174.32,116.05 179.17,116.45 184.02,109.03 188.87,110.69 193.72,102.71 198.57,120.72 203.42,125.73 208.27,115.51 213.12,105.26 217.97,108.16 222.82,109.23 227.67,100.01 232.52,104.19 237.37,110.40 242.22,113.49 247.07,119.91 251.92,118.03 256.77,129.40 261.63,118.12 266.48,122.91 271.33,123.88 276.18,131.92 281.03,115.11 285.88,115.81 290.73,111.80 295.58,125.72 300.43,123.42 305.28,129.98 310.13,134.47 314.98,133.64 319.83,135.06 324.68,118.47 329.53,133.47 334.38,132.54 339.23,124.04 344.08,134.38 348.93,138.08 353.79,145.00 358.64,143.63 363.49,156.42 368.34,157.94 373.19,167.17 378.04,186.16 382.89,179.99 387.74,175.18 392.59,191.16 397.44,155.37 402.29,174.40 407.14,169.10 411.99,210.16 416.84,209.48 421.69,203.62 426.54,210.33 431.39,197.67 436.24,221.34 441.09,223.54 445.95,212.54 450.80,215.39 455.65,228.17 460.50,259.20 465.35,239.28 470.20,178.61 475.05,182.20 479.90,150.25 484.75,131.68 489.60,135.29 489.60,54.10 484.75,49.29 479.90,87.90 475.05,86.77 470.20,122.26 465.35,106.70 460.50,136.38 455.65,135.22 450.80,134.96 445.95,112.82 441.09,130.70 436.24,139.98 431.39,141.88 426.54,113.89 421.69,117.82 416.84,126.27 411.99,103.68 407.14,103.38 402.29,130.51 397.44,74.55 392.59,92.90 387.74,105.02 382.89,106.25 378.04,99.47 373.19,96.90 368.34,112.03 363.49,98.87 358.64,71.34 353.79,65.43 348.93,74.31 344.08,69.55 339.23,67.48 334.38,63.82 329.53,84.54 324.68,84.34 319.83,103.79 314.98,98.24 310.13,96.63 305.28,91.78 300.43,86.27 295.58,86.11 290.73,90.74 285.88,95.05 281.03,93.45 276.18,111.24 271.33,98.25 266.48,83.72 261.63,82.39 256.77,98.08 251.92,93.25 247.07,97.47 242.22,78.09 237.37,82.89 232.52,70.84 227.67,78.22 222.82,75.65 217.97,84.08 213.12,75.01 208.27,65.09 203.42,89.43 198.57,88.85 193.72,78.26 188.87,89.59 184.02,65.62 179.17,79.58 174.32,81.19 169.47,76.49 164.61,83.40 159.76,74.58 154.91,78.17 150.06,76.83 145.21,96.70 140.36,90.11 135.51,84.87 130.66,77.84 125.81,48.35 120.96,68.07 116.11,64.27 111.26,67.83 106.41,80.38 101.56,92.54 96.71,79.65 91.86,81.37 87.01,70.62 82.16,59.75 77.31,61.39 72.45,74.70 67.60,89.49 62.75,65.63 57.90,68.67 53.05,87.59 48.20,74.65 43.35,79.89 38.50,42.99 33.65,25.55 28.80,21.56 "
     style="fill:#000000;fill-opacity:0.2;stroke:none;stroke-width:0.75;stroke-linecap:round;stroke-linejoin:round;stroke-miterlimit:10"
     clip-path="url(#cpMjguOHw0ODkuNnwyNTkuMnwxNC40)"
     id="polyline39" />
  <polyline
     points="28.80,43.82 33.65,46.42 38.50,63.39 43.35,94.44 48.20,109.76 53.05,103.75 57.90,90.36 62.75,89.47 67.60,107.90 72.45,104.17 77.31,92.70 82.16,95.13 87.01,106.86 91.86,105.09 96.71,100.46 101.56,106.40 106.41,104.05 111.26,92.15 116.11,93.17 120.96,95.99 125.81,91.52 130.66,91.33 135.51,100.71 140.36,105.59 145.21,117.77 150.06,100.03 154.91,88.47 159.76,95.51 164.61,95.74 169.47,88.72 174.32,98.84 179.17,97.51 184.02,89.90 188.87,98.65 193.72,88.26 198.57,102.20 203.42,110.22 208.27,93.82 213.12,95.88 217.97,97.04 222.82,90.06 227.67,86.68 232.52,84.78 237.37,93.75 242.22,92.69 247.07,109.14 251.92,103.82 256.77,108.81 261.63,99.95 266.48,104.13 271.33,108.59 276.18,119.97 281.03,104.61 285.88,105.66 290.73,100.25 295.58,107.09 300.43,107.91 305.28,113.12 310.13,118.58 314.98,118.81 319.83,122.75 324.68,110.43 329.53,112.01 334.38,100.03 339.23,102.72 344.08,109.39 348.93,110.41 353.79,98.37 358.64,107.81 363.49,123.74 368.34,131.99 373.19,129.46 378.04,129.66 382.89,136.32 387.74,147.16 392.59,125.70 397.44,109.21 402.29,149.32 407.14,134.40 411.99,151.62 416.84,156.96 421.69,154.40 426.54,159.22 431.39,150.83 436.24,164.81 441.09,175.89 445.95,157.28 450.80,173.91 455.65,176.78 460.50,187.22 465.35,175.33 470.20,155.87 475.05,135.77 479.90,126.88 484.75,82.30 489.60,87.70 "
     style="fill:none;stroke:#000000;stroke-width:1.5;stroke-linecap:round;stroke-linejoin:round;stroke-miterlimit:10"
     clip-path="url(#cpMjguOHw0ODkuNnwyNTkuMnwxNC40)"
     id="polyline41" />
  <polyline
     points="28.80,142.87 33.65,102.89 38.50,77.94 43.35,122.75 48.20,116.26 53.05,124.76 57.90,116.06 62.75,101.42 67.60,119.75 72.45,137.74 77.31,112.60 82.16,116.60 87.01,127.02 91.86,125.81 96.71,131.00 101.56,128.59 106.41,137.21 111.26,130.15 116.11,124.77 120.96,127.23 125.81,128.29 130.66,127.21 135.51,120.67 140.36,133.79 145.21,136.33 150.06,143.93 154.91,132.58 159.76,132.91 164.61,122.81 169.47,113.86 174.32,139.17 179.17,155.65 184.02,122.11 188.87,128.74 193.72,131.15 198.57,122.17 203.42,123.52 208.27,116.53 213.12,124.87 217.97,101.86 222.82,100.87 227.67,102.06 232.52,103.37 237.37,120.23 242.22,123.62 247.07,148.86 251.92,146.46 256.77,149.43 261.63,133.84 266.48,128.07 271.33,114.24 276.18,123.72 281.03,112.32 285.88,110.53 290.73,104.88 295.58,105.58 300.43,93.82 305.28,92.05 310.13,105.88 314.98,111.37 319.83,114.25 324.68,101.90 329.53,112.85 334.38,101.60 339.23,109.42 344.08,108.66 348.93,104.08 353.79,100.87 358.64,103.79 363.49,110.02 368.34,111.76 373.19,145.83 378.04,140.66 382.89,175.74 387.74,180.73 392.59,151.15 397.44,166.15 402.29,176.51 407.14,189.96 411.99,174.37 416.84,181.42 421.69,184.42 426.54,200.11 431.39,197.45 436.24,190.54 441.09,180.36 445.95,209.56 450.80,201.30 455.65,212.85 460.50,230.76 465.35,207.86 470.20,211.31 475.05,164.97 479.90,163.84 484.75,174.57 489.60,130.21 489.60,57.00 484.75,78.34 479.90,63.78 475.05,59.64 470.20,112.14 465.35,150.37 460.50,124.36 455.65,99.86 450.80,125.30 445.95,103.02 441.09,107.83 436.24,117.23 431.39,118.38 426.54,97.86 421.69,70.41 416.84,88.48 411.99,92.97 407.14,74.70 402.29,110.72 397.44,98.13 392.59,75.52 387.74,116.75 382.89,90.87 378.04,80.87 373.19,67.98 368.34,73.08 363.49,62.47 358.64,65.82 353.79,84.43 348.93,79.37 344.08,63.83 339.23,80.45 334.38,71.29 329.53,58.05 324.68,56.83 319.83,53.70 314.98,52.78 310.13,59.45 305.28,57.96 300.43,59.04 295.58,61.02 290.73,57.91 285.88,59.66 281.03,62.87 276.18,70.41 271.33,71.95 266.48,74.83 261.63,69.41 256.77,75.00 251.92,69.37 247.07,86.80 242.22,78.97 237.37,68.91 232.52,61.96 227.67,66.27 222.82,64.11 217.97,74.95 213.12,74.62 208.27,77.88 203.42,74.26 198.57,83.89 193.72,84.04 188.87,94.72 184.02,85.09 179.17,99.60 174.32,88.65 169.47,74.31 164.61,74.32 159.76,83.81 154.91,80.72 150.06,81.54 145.21,78.83 140.36,74.81 135.51,80.94 130.66,85.13 125.81,85.37 120.96,85.48 116.11,79.83 111.26,83.20 106.41,98.43 101.56,95.18 96.71,94.13 91.86,88.79 87.01,87.91 82.16,85.08 77.31,80.55 72.45,87.34 67.60,96.10 62.75,75.22 57.90,87.43 53.05,99.66 48.20,101.09 43.35,64.37 38.50,30.29 33.65,47.51 28.80,57.37 "
     style="fill:#ff0000;fill-opacity:0.2;stroke:none;stroke-width:0.75;stroke-linecap:round;stroke-linejoin:round;stroke-miterlimit:10"
     clip-path="url(#cpMjguOHw0ODkuNnwyNTkuMnwxNC40)"
     id="polyline43" />
  <polyline
     points="28.80,98.73 33.65,67.96 38.50,60.80 43.35,88.06 48.20,116.60 53.05,118.95 57.90,108.88 62.75,98.57 67.60,114.51 72.45,116.32 77.31,110.60 82.16,110.90 87.01,116.31 91.86,115.16 96.71,115.36 101.56,113.20 106.41,118.11 111.26,108.75 116.11,104.90 120.96,107.52 125.81,109.77 130.66,104.44 135.51,101.34 140.36,99.13 145.21,95.24 150.06,98.13 154.91,95.16 159.76,107.68 164.61,92.79 169.47,95.21 174.32,113.55 179.17,120.33 184.02,104.94 188.87,106.10 193.72,100.81 198.57,102.41 203.42,102.00 208.27,99.62 213.12,100.65 217.97,93.64 222.82,89.08 227.67,85.51 232.52,85.10 237.37,96.65 242.22,97.32 247.07,115.98 251.92,114.36 256.77,110.65 261.63,98.03 266.48,100.80 271.33,92.25 276.18,95.39 281.03,88.62 285.88,82.43 290.73,77.79 295.58,83.36 300.43,79.99 305.28,73.66 310.13,80.32 314.98,82.47 319.83,80.83 324.68,83.84 329.53,86.18 334.38,84.61 339.23,93.93 344.08,86.87 348.93,88.78 353.79,88.77 358.64,84.70 363.49,87.99 368.34,87.13 373.19,102.00 378.04,116.66 382.89,129.68 387.74,142.24 392.59,112.30 397.44,131.00 402.29,149.23 407.14,143.69 411.99,133.00 416.84,137.23 421.69,137.52 426.54,156.88 431.39,166.92 436.24,151.66 441.09,160.60 445.95,166.84 450.80,166.32 455.65,155.05 460.50,175.61 465.35,179.08 470.20,170.67 475.05,115.03 479.90,113.29 484.75,127.48 489.60,98.47 "
     style="fill:none;stroke:#ff0000;stroke-width:1.5;stroke-linecap:round;stroke-linejoin:round;stroke-miterlimit:10"
     clip-path="url(#cpMjguOHw0ODkuNnwyNTkuMnwxNC40)"
     id="polyline45" />
  <polyline
     points="28.80,152.79 33.65,125.16 38.50,88.83 43.35,103.05 48.20,147.36 53.05,122.05 57.90,113.38 62.75,108.95 67.60,128.48 72.45,117.41 77.31,93.95 82.16,105.83 87.01,122.44 91.86,124.43 96.71,133.50 101.56,129.54 106.41,140.80 111.26,142.28 116.11,131.13 120.96,130.23 125.81,131.90 130.66,131.43 135.51,124.88 140.36,135.69 145.21,133.40 150.06,125.15 154.91,130.44 159.76,137.72 164.61,135.31 169.47,139.63 174.32,146.43 179.17,143.63 184.02,153.18 188.87,156.31 193.72,148.97 198.57,148.71 203.42,141.42 208.27,143.46 213.12,138.49 217.97,146.29 222.82,143.22 227.67,125.05 232.52,128.88 237.37,127.62 242.22,124.94 247.07,132.24 251.92,137.89 256.77,135.24 261.63,138.03 266.48,124.82 271.33,120.64 276.18,122.80 281.03,121.02 285.88,120.87 290.73,123.60 295.58,113.51 300.43,109.38 305.28,114.21 310.13,111.83 314.98,129.82 319.83,117.69 324.68,111.75 329.53,108.88 334.38,102.34 339.23,112.50 344.08,102.08 348.93,103.48 353.79,106.27 358.64,98.36 363.49,104.16 368.34,109.35 373.19,141.03 378.04,135.28 382.89,162.26 387.74,171.06 392.59,160.25 397.44,170.01 402.29,196.29 407.14,204.25 411.99,183.29 416.84,181.03 421.69,215.36 426.54,208.28 431.39,202.02 436.24,188.06 441.09,214.20 445.95,227.00 450.80,213.62 455.65,237.11 460.50,227.59 465.35,204.86 470.20,207.42 475.05,187.58 479.90,137.26 484.75,147.31 489.60,132.00 489.60,24.98 484.75,42.84 479.90,31.50 475.05,43.30 470.20,86.82 465.35,94.29 460.50,126.42 455.65,107.57 450.80,97.56 445.95,78.48 441.09,88.56 436.24,84.85 431.39,98.01 426.54,56.04 421.69,89.32 416.84,91.31 411.99,76.24 407.14,95.53 402.29,90.79 397.44,79.92 392.59,80.80 387.74,78.13 382.89,77.00 378.04,63.87 373.19,79.89 368.34,65.26 363.49,74.09 358.64,80.23 353.79,79.46 348.93,63.96 344.08,73.53 339.23,70.34 334.38,73.57 329.53,71.33 324.68,68.03 319.83,49.88 314.98,75.33 310.13,71.84 305.28,73.52 300.43,73.60 295.58,62.34 290.73,69.74 285.88,58.01 281.03,77.38 276.18,75.22 271.33,69.55 266.48,76.86 261.63,58.82 256.77,68.86 251.92,79.17 247.07,61.94 242.22,74.40 237.37,64.52 232.52,60.02 227.67,76.46 222.82,87.94 217.97,83.39 213.12,84.93 208.27,96.37 203.42,101.92 198.57,92.76 193.72,97.33 188.87,95.39 184.02,97.26 179.17,89.70 174.32,79.03 169.47,96.26 164.61,88.14 159.76,77.50 154.91,68.99 150.06,57.99 145.21,76.38 140.36,87.36 135.51,80.11 130.66,90.12 125.81,90.55 120.96,92.61 116.11,97.60 111.26,90.51 106.41,86.68 101.56,87.86 96.71,78.24 91.86,86.29 87.01,79.18 82.16,81.70 77.31,45.48 72.45,76.33 67.60,92.72 62.75,51.29 57.90,66.24 53.05,49.94 48.20,73.35 43.35,36.53 38.50,19.25 33.65,29.16 28.80,81.67 "
     style="fill:#00ff00;fill-opacity:0.2;stroke:none;stroke-width:0.75;stroke-linecap:round;stroke-linejoin:round;stroke-miterlimit:10"
     clip-path="url(#cpMjguOHw0ODkuNnwyNTkuMnwxNC40)"
     id="polyline47" />
  <polyline
     points="28.80,104.09 33.65,73.42 38.50,49.19 43.35,55.85 48.20,100.97 53.05,79.27 57.90,80.19 62.75,81.32 67.60,100.95 72.45,97.35 77.31,85.39 82.16,102.07 87.01,107.84 91.86,109.65 96.71,106.87 101.56,107.14 106.41,110.48 111.26,110.52 116.11,109.26 120.96,107.82 125.81,111.18 130.66,104.50 135.51,98.53 140.36,105.68 145.21,104.38 150.06,93.68 154.91,99.11 159.76,104.89 164.61,103.06 169.47,114.01 174.32,107.71 179.17,111.79 184.02,114.88 188.87,124.64 193.72,127.14 198.57,124.81 203.42,116.90 208.27,117.80 213.12,109.97 217.97,109.83 222.82,108.58 227.67,99.54 232.52,94.83 237.37,97.13 242.22,98.94 247.07,104.49 251.92,107.27 256.77,103.05 261.63,105.88 266.48,102.17 271.33,94.75 276.18,98.44 281.03,96.25 285.88,92.16 290.73,96.19 295.58,85.90 300.43,84.55 305.28,88.27 310.13,93.14 314.98,99.25 319.83,84.71 324.68,90.36 329.53,98.50 334.38,92.31 339.23,92.76 344.08,87.88 348.93,83.44 353.79,94.87 358.64,90.26 363.49,86.62 368.34,89.81 373.19,107.91 378.04,102.70 382.89,119.62 387.74,124.88 392.59,121.66 397.44,124.06 402.29,148.56 407.14,142.83 411.99,130.03 416.84,140.17 421.69,146.80 426.54,133.56 431.39,147.11 436.24,135.27 441.09,137.19 445.95,155.42 450.80,155.15 455.65,176.10 460.50,179.62 465.35,149.33 470.20,151.93 475.05,108.10 479.90,89.30 484.75,107.58 489.60,77.39 "
     style="fill:none;stroke:#00ff00;stroke-width:1.5;stroke-linecap:round;stroke-linejoin:round;stroke-miterlimit:10"
     clip-path="url(#cpMjguOHw0ODkuNnwyNTkuMnwxNC40)"
     id="polyline49" />
  <polyline
     points="28.80,99.91 33.65,110.67 38.50,88.44 43.35,93.61 48.20,115.64 53.05,102.19 57.90,98.45 62.75,100.89 67.60,106.84 72.45,96.81 77.31,86.04 82.16,95.37 87.01,106.87 91.86,109.32 96.71,119.53 101.56,132.96 106.41,122.18 111.26,112.19 116.11,115.25 120.96,113.99 125.81,127.80 130.66,121.57 135.51,132.19 140.36,127.04 145.21,122.13 150.06,129.06 154.91,122.84 159.76,131.28 164.61,121.84 169.47,129.29 174.32,139.70 179.17,139.80 184.02,129.74 188.87,127.58 193.72,134.67 198.57,131.94 203.42,129.52 208.27,130.27 213.12,116.14 217.97,127.49 222.82,113.43 227.67,120.72 232.52,121.61 237.37,140.76 242.22,131.57 247.07,138.85 251.92,146.88 256.77,124.13 261.63,111.80 266.48,104.20 271.33,114.62 276.18,103.88 281.03,97.63 285.88,105.63 290.73,112.27 295.58,113.19 300.43,106.79 305.28,111.18 310.13,115.43 314.98,110.06 319.83,100.89 324.68,93.21 329.53,89.78 334.38,92.01 339.23,84.74 344.08,78.07 348.93,90.97 353.79,97.37 358.64,92.01 363.49,92.43 368.34,99.44 373.19,104.21 378.04,101.37 382.89,106.56 387.74,115.45 392.59,111.08 397.44,114.81 402.29,121.35 407.14,144.72 411.99,164.00 416.84,163.93 421.69,161.23 426.54,176.04 431.39,198.37 436.24,189.25 441.09,204.35 445.95,227.38 450.80,255.86 455.65,202.29 460.50,187.11 465.35,184.63 470.20,176.77 475.05,178.12 479.90,162.34 484.75,139.72 489.60,117.05 489.60,55.96 484.75,69.84 479.90,59.84 475.05,100.64 470.20,132.67 465.35,110.94 460.50,94.08 455.65,93.61 450.80,137.41 445.95,132.01 441.09,124.46 436.24,98.45 431.39,116.38 426.54,111.25 421.69,81.55 416.84,93.99 411.99,85.93 407.14,97.40 402.29,77.13 397.44,78.50 392.59,75.76 387.74,65.95 382.89,75.61 378.04,83.30 373.19,74.11 368.34,73.64 363.49,67.57 358.64,61.77 353.79,66.48 348.93,59.91 344.08,37.19 339.23,60.36 334.38,65.77 329.53,56.21 324.68,56.94 319.83,51.39 314.98,61.18 310.13,66.30 305.28,72.77 300.43,63.64 295.58,68.43 290.73,48.34 285.88,57.71 281.03,60.31 276.18,57.28 271.33,53.56 266.48,57.45 261.63,50.81 256.77,48.72 251.92,59.51 247.07,73.92 242.22,60.81 237.37,68.63 232.52,51.58 227.67,74.12 222.82,69.15 217.97,88.98 213.12,91.74 208.27,90.99 203.42,90.54 198.57,98.63 193.72,92.42 188.87,94.66 184.02,87.19 179.17,97.10 174.32,106.24 169.47,101.26 164.61,91.32 159.76,100.24 154.91,78.50 150.06,88.67 145.21,89.32 140.36,88.91 135.51,78.93 130.66,86.80 125.81,81.25 120.96,91.14 116.11,80.28 111.26,82.87 106.41,88.45 101.56,85.75 96.71,93.74 91.86,79.94 87.01,82.66 82.16,76.58 77.31,50.72 72.45,69.34 67.60,74.33 62.75,78.31 57.90,49.21 53.05,90.81 48.20,77.00 43.35,36.82 38.50,32.87 33.65,14.40 28.80,35.29 "
     style="fill:#0000ff;fill-opacity:0.2;stroke:none;stroke-width:0.75;stroke-linecap:round;stroke-linejoin:round;stroke-miterlimit:10"
     clip-path="url(#cpMjguOHw0ODkuNnwyNTkuMnwxNC40)"
     id="polyline51" />
  <polyline
     points="28.80,70.49 33.65,64.36 38.50,61.86 43.35,68.24 48.20,98.80 53.05,98.72 57.90,79.91 62.75,90.19 67.60,94.97 72.45,91.98 77.31,76.33 82.16,89.98 87.01,97.56 91.86,98.37 96.71,102.79 101.56,109.27 106.41,107.10 111.26,96.37 116.11,99.38 120.96,100.40 125.81,96.84 130.66,93.73 135.51,97.74 140.36,102.63 145.21,95.93 150.06,95.06 154.91,95.20 159.76,110.14 164.61,101.81 169.47,113.31 174.32,119.78 179.17,113.39 184.02,105.61 188.87,109.14 193.72,108.14 198.57,114.58 203.42,105.85 208.27,107.51 213.12,104.36 217.97,103.16 222.82,90.02 227.67,93.88 232.52,90.27 237.37,99.30 242.22,99.07 247.07,103.79 251.92,99.95 256.77,84.97 261.63,80.12 266.48,86.67 271.33,78.22 276.18,75.00 281.03,72.59 285.88,82.71 290.73,81.59 295.58,85.52 300.43,83.93 305.28,86.63 310.13,86.17 314.98,81.95 319.83,71.20 324.68,73.73 329.53,76.58 334.38,74.48 339.23,69.84 344.08,63.30 348.93,74.72 353.79,81.94 358.64,78.34 363.49,79.70 368.34,86.32 373.19,87.24 378.04,94.85 382.89,94.58 387.74,93.82 392.59,100.04 397.44,93.51 402.29,98.29 407.14,115.16 411.99,119.73 416.84,119.57 421.69,120.55 426.54,135.37 431.39,144.20 436.24,140.56 441.09,152.55 445.95,170.19 450.80,179.14 455.65,147.58 460.50,133.12 465.35,143.83 470.20,141.09 475.05,122.36 479.90,110.31 484.75,103.10 489.60,78.33 "
     style="fill:none;stroke:#0000ff;stroke-width:1.5;stroke-linecap:round;stroke-linejoin:round;stroke-miterlimit:10"
     clip-path="url(#cpMjguOHw0ODkuNnwyNTkuMnwxNC40)"
     id="polyline53" />
  <polyline
     points="28.80,129.03 33.65,126.78 38.50,93.92 43.35,95.14 48.20,96.94 53.05,102.42 57.90,95.26 62.75,85.62 67.60,96.56 72.45,86.45 77.31,85.66 82.16,87.44 87.01,113.58 91.86,130.98 96.71,122.79 101.56,129.63 106.41,131.24 111.26,127.95 116.11,131.20 120.96,131.40 125.81,128.73 130.66,139.58 135.51,134.70 140.36,133.04 145.21,129.21 150.06,119.92 154.91,108.66 159.76,118.82 164.61,114.89 169.47,119.58 174.32,121.62 179.17,125.07 184.02,126.41 188.87,136.70 193.72,125.14 198.57,131.62 203.42,116.08 208.27,130.83 213.12,129.71 217.97,121.12 222.82,124.32 227.67,119.34 232.52,132.80 237.37,130.99 242.22,154.04 247.07,159.58 251.92,166.61 256.77,163.96 261.63,143.83 266.48,130.99 271.33,135.21 276.18,143.49 281.03,124.26 285.88,130.09 290.73,110.66 295.58,108.92 300.43,115.10 305.28,115.02 310.13,118.91 314.98,120.99 319.83,127.74 324.68,115.87 329.53,113.38 334.38,103.34 339.23,120.10 344.08,114.87 348.93,128.29 353.79,127.11 358.64,124.49 363.49,110.81 368.34,111.00 373.19,116.43 378.04,105.63 382.89,101.64 387.74,105.03 392.59,98.25 397.44,88.85 402.29,93.52 407.14,92.23 411.99,86.73 416.84,90.60 421.69,85.85 426.54,116.81 431.39,119.65 436.24,118.00 441.09,117.53 445.95,118.04 450.80,127.89 455.65,134.09 460.50,144.51 465.35,146.64 470.20,141.37 475.05,126.58 479.90,131.35 484.75,135.74 489.60,135.17 489.60,73.82 484.75,90.61 479.90,80.70 475.05,77.97 470.20,85.08 465.35,102.79 460.50,100.97 455.65,85.88 450.80,90.37 445.95,65.79 441.09,85.46 436.24,73.85 431.39,49.04 426.54,63.55 421.69,47.83 416.84,52.12 411.99,52.56 407.14,37.02 402.29,48.33 397.44,42.12 392.59,64.78 387.74,54.60 382.89,63.24 378.04,63.59 373.19,74.77 368.34,56.40 363.49,79.32 358.64,68.45 353.79,80.02 348.93,75.25 344.08,85.17 339.23,72.54 334.38,66.97 329.53,69.89 324.68,57.08 319.83,56.18 314.98,67.80 310.13,66.70 305.28,70.88 300.43,65.46 295.58,64.95 290.73,53.18 285.88,55.64 281.03,71.96 276.18,80.94 271.33,67.15 266.48,75.99 261.63,59.29 256.77,64.90 251.92,83.92 247.07,83.33 242.22,76.78 237.37,76.47 232.52,66.63 227.67,72.17 222.82,70.21 217.97,79.59 213.12,77.70 208.27,73.43 203.42,75.55 198.57,69.72 193.72,72.08 188.87,74.68 184.02,84.28 179.17,103.91 174.32,83.64 169.47,76.28 164.61,73.07 159.76,86.94 154.91,75.92 150.06,73.76 145.21,91.83 140.36,78.46 135.51,86.90 130.66,101.03 125.81,87.90 120.96,75.82 116.11,81.15 111.26,83.77 106.41,71.91 101.56,83.21 96.71,78.79 91.86,68.52 87.01,55.97 82.16,50.99 77.31,50.47 72.45,73.70 67.60,78.57 62.75,44.49 57.90,40.60 53.05,66.49 48.20,56.58 43.35,35.29 38.50,21.80 33.65,65.54 28.80,34.67 "
     style="fill:#ffa500;fill-opacity:0.2;stroke:none;stroke-width:0.75;stroke-linecap:round;stroke-linejoin:round;stroke-miterlimit:10"
     clip-path="url(#cpMjguOHw0ODkuNnwyNTkuMnwxNC40)"
     id="polyline55" />
  <polyline
     points="28.80,86.21 33.65,93.55 38.50,55.22 43.35,72.90 48.20,92.52 53.05,95.97 57.90,85.01 62.75,86.77 67.60,104.78 72.45,99.45 77.31,90.39 82.16,90.39 87.01,101.96 91.86,108.43 96.71,107.52 101.56,103.54 106.41,106.41 111.26,104.54 116.11,102.12 120.96,105.22 125.81,104.75 130.66,113.80 135.51,106.77 140.36,105.92 145.21,103.13 150.06,92.47 154.91,91.56 159.76,102.30 164.61,96.38 169.47,97.52 174.32,105.06 179.17,109.94 184.02,106.42 188.87,105.89 193.72,98.55 198.57,99.73 203.42,94.89 208.27,104.25 213.12,106.77 217.97,103.71 222.82,101.60 227.67,96.68 232.52,97.77 237.37,102.76 242.22,109.60 247.07,118.05 251.92,127.96 256.77,124.18 261.63,108.88 266.48,112.68 271.33,108.66 276.18,116.21 281.03,109.34 285.88,100.63 290.73,91.15 295.58,96.12 300.43,97.10 305.28,94.25 310.13,96.78 314.98,94.65 319.83,91.55 324.68,90.06 329.53,99.53 334.38,91.93 339.23,107.32 344.08,102.01 348.93,101.54 353.79,104.21 358.64,95.13 363.49,93.59 368.34,87.88 373.19,97.45 378.04,87.18 382.89,83.42 387.74,81.17 392.59,80.39 397.44,71.00 402.29,67.56 407.14,70.29 411.99,73.01 416.84,74.77 421.69,72.16 426.54,92.35 431.39,88.15 436.24,100.98 441.09,105.64 445.95,102.50 450.80,115.46 455.65,115.21 460.50,125.31 465.35,130.69 470.20,113.46 475.05,108.01 479.90,102.46 484.75,110.43 489.60,96.66 "
     style="fill:none;stroke:#ffa500;stroke-width:1.5;stroke-linecap:round;stroke-linejoin:round;stroke-miterlimit:10"
     clip-path="url(#cpMjguOHw0ODkuNnwyNTkuMnwxNC40)"
     id="polyline57" />
  <defs
     id="defs62">
    <clipPath
       id="cpMHw1MDR8Mjg4fDA=">
      <rect
         x="0"
         y="0"
         width="504"
         height="288"
         id="rect59"
         style="fill:none;stroke:#000000;stroke-linecap:round;stroke-linejoin:round;stroke-miterlimit:10" />
    </clipPath>
  </defs>
  <line
     x1="28.799999"
     y1="259.20001"
     x2="475.04999"
     y2="259.20001"
     style="fill:none;stroke:#000000;stroke-width:0.75;stroke-linecap:round;stroke-linejoin:round;stroke-miterlimit:10"
     clip-path="url(#cpMHw1MDR8Mjg4fDA=)"
     id="line64" />
  <line
     x1="28.799999"
     y1="259.20001"
     x2="28.799999"
     y2="266.39999"
     style="fill:none;stroke:#000000;stroke-width:0.75;stroke-linecap:round;stroke-linejoin:round;stroke-miterlimit:10"
     clip-path="url(#cpMHw1MDR8Mjg4fDA=)"
     id="line66" />
  <line
     x1="87.010002"
     y1="259.20001"
     x2="87.010002"
     y2="266.39999"
     style="fill:none;stroke:#000000;stroke-width:0.75;stroke-linecap:round;stroke-linejoin:round;stroke-miterlimit:10"
     clip-path="url(#cpMHw1MDR8Mjg4fDA=)"
     id="line68" />
  <line
     x1="164.61"
     y1="259.20001"
     x2="164.61"
     y2="266.39999"
     style="fill:none;stroke:#000000;stroke-width:0.75;stroke-linecap:round;stroke-linejoin:round;stroke-miterlimit:10"
     clip-path="url(#cpMHw1MDR8Mjg4fDA=)"
     id="line70" />
  <line
     x1="242.22"
     y1="259.20001"
     x2="242.22"
     y2="266.39999"
     style="fill:none;stroke:#000000;stroke-width:0.75;stroke-linecap:round;stroke-linejoin:round;stroke-miterlimit:10"
     clip-path="url(#cpMHw1MDR8Mjg4fDA=)"
     id="line72" />
  <line
     x1="319.82999"
     y1="259.20001"
     x2="319.82999"
     y2="266.39999"
     style="fill:none;stroke:#000000;stroke-width:0.75;stroke-linecap:round;stroke-linejoin:round;stroke-miterlimit:10"
     clip-path="url(#cpMHw1MDR8Mjg4fDA=)"
     id="line74" />
  <line
     x1="397.44"
     y1="259.20001"
     x2="397.44"
     y2="266.39999"
     style="fill:none;stroke:#000000;stroke-width:0.75;stroke-linecap:round;stroke-linejoin:round;stroke-miterlimit:10"
     clip-path="url(#cpMHw1MDR8Mjg4fDA=)"
     id="line76" />
  <line
     x1="475.04999"
     y1="259.20001"
     x2="475.04999"
     y2="266.39999"
     style="fill:none;stroke:#000000;stroke-width:0.75;stroke-linecap:round;stroke-linejoin:round;stroke-miterlimit:10"
     clip-path="url(#cpMHw1MDR8Mjg4fDA=)"
     id="line78" />
  <g
     clip-path="url(#cpMHw1MDR8Mjg4fDA=)"
     id="g82">
    <text
       x="28.799999"
       y="277.92001"
       style="font-size:12px;font-family:'Liberation Sans'"
       textLength="23.34"
       lengthAdjust="spacingAndGlyphs"
       id="text80">5am</text>
  </g>
  <g
     clip-path="url(#cpMHw1MDR8Mjg4fDA=)"
     id="g86">
    <text
       x="87.010002"
       y="277.92001"
       style="font-size:12px;font-family:'Liberation Sans'"
       textLength="6.6700001"
       lengthAdjust="spacingAndGlyphs"
       id="text84">8</text>
  </g>
  <g
     clip-path="url(#cpMHw1MDR8Mjg4fDA=)"
     id="g90">
    <text
       x="164.61"
       y="277.92001"
       style="font-size:12px;font-family:'Liberation Sans'"
       textLength="30.02"
       lengthAdjust="spacingAndGlyphs"
       id="text88">12pm</text>
  </g>
  <g
     clip-path="url(#cpMHw1MDR8Mjg4fDA=)"
     id="g94">
    <text
       x="242.22"
       y="277.92001"
       style="font-size:12px;font-family:'Liberation Sans'"
       textLength="6.6700001"
       lengthAdjust="spacingAndGlyphs"
       id="text92">4</text>
  </g>
  <g
     clip-path="url(#cpMHw1MDR8Mjg4fDA=)"
     id="g98">
    <text
       x="319.82999"
       y="277.92001"
       style="font-size:12px;font-family:'Liberation Sans'"
       textLength="6.6700001"
       lengthAdjust="spacingAndGlyphs"
       id="text96">8</text>
  </g>
  <g
     clip-path="url(#cpMHw1MDR8Mjg4fDA=)"
     id="g102">
    <text
       x="397.44"
       y="277.92001"
       style="font-size:12px;font-family:'Liberation Sans'"
       textLength="30.02"
       lengthAdjust="spacingAndGlyphs"
       id="text100">12am</text>
  </g>
  <g
     clip-path="url(#cpMHw1MDR8Mjg4fDA=)"
     id="g106">
    <text
       x="475.04999"
       y="277.92001"
       style="font-size:12px;font-family:'Liberation Sans'"
       textLength="6.6700001"
       lengthAdjust="spacingAndGlyphs"
       id="text104">4</text>
  </g>
  <defs
     id="defs112">
    <clipPath
       id="clipPath110">
      <rect
         x="28.799999"
         y="14.4"
         width="460.79999"
         height="244.8"
         id="rect108"
         style="fill:none;stroke:#000000;stroke-linecap:round;stroke-linejoin:round;stroke-miterlimit:10" />
    </clipPath>
  </defs>
  <line
     x1="9.3999996"
     y1="259.20001"
     x2="9.3999996"
     y2="14.4"
     style="fill:none;stroke:#bebebe;stroke-width:0.75;stroke-linecap:round;stroke-linejoin:round;stroke-miterlimit:10;stroke-dasharray:1, 3"
     clip-path="url(#cpMjguOHw0ODkuNnwyNTkuMnwxNC40)"
     id="line114" />
  <line
     x1="87.010002"
     y1="259.20001"
     x2="87.010002"
     y2="14.4"
     style="fill:none;stroke:#bebebe;stroke-width:0.75;stroke-linecap:round;stroke-linejoin:round;stroke-miterlimit:10;stroke-dasharray:1, 3"
     clip-path="url(#cpMjguOHw0ODkuNnwyNTkuMnwxNC40)"
     id="line116" />
  <line
     x1="164.61"
     y1="259.20001"
     x2="164.61"
     y2="14.4"
     style="fill:none;stroke:#bebebe;stroke-width:0.75;stroke-linecap:round;stroke-linejoin:round;stroke-miterlimit:10;stroke-dasharray:1, 3"
     clip-path="url(#cpMjguOHw0ODkuNnwyNTkuMnwxNC40)"
     id="line118" />
  <line
     x1="242.22"
     y1="259.20001"
     x2="242.22"
     y2="14.4"
     style="fill:none;stroke:#bebebe;stroke-width:0.75;stroke-linecap:round;stroke-linejoin:round;stroke-miterlimit:10;stroke-dasharray:1, 3"
     clip-path="url(#cpMjguOHw0ODkuNnwyNTkuMnwxNC40)"
     id="line120" />
  <line
     x1="319.82999"
     y1="259.20001"
     x2="319.82999"
     y2="14.4"
     style="fill:none;stroke:#bebebe;stroke-width:0.75;stroke-linecap:round;stroke-linejoin:round;stroke-miterlimit:10;stroke-dasharray:1, 3"
     clip-path="url(#cpMjguOHw0ODkuNnwyNTkuMnwxNC40)"
     id="line122" />
  <line
     x1="397.44"
     y1="259.20001"
     x2="397.44"
     y2="14.4"
     style="fill:none;stroke:#bebebe;stroke-width:0.75;stroke-linecap:round;stroke-linejoin:round;stroke-miterlimit:10;stroke-dasharray:1, 3"
     clip-path="url(#cpMjguOHw0ODkuNnwyNTkuMnwxNC40)"
     id="line124" />
  <line
     x1="28.799999"
     y1="85.099998"
     x2="489.60001"
     y2="85.099998"
     style="fill:none;stroke:#000000;stroke-width:0.75;stroke-linecap:round;stroke-linejoin:round;stroke-miterlimit:10"
     clip-path="url(#cpMjguOHw0ODkuNnwyNTkuMnwxNC40)"
     id="line126" />
  <line
     x1="28.799999"
     y1="105.58"
     x2="489.60001"
     y2="105.58"
     style="fill:none;stroke:#4d4d4d;stroke-width:0.75;stroke-linecap:round;stroke-linejoin:round;stroke-miterlimit:10;stroke-dasharray:4, 4"
     clip-path="url(#cpMjguOHw0ODkuNnwyNTkuMnwxNC40)"
     id="line128" />
  <line
     x1="28.799999"
     y1="126.06"
     x2="489.60001"
     y2="126.06"
     style="fill:none;stroke:#4d4d4d;stroke-width:0.75;stroke-linecap:round;stroke-linejoin:round;stroke-miterlimit:10;stroke-dasharray:4, 4"
     clip-path="url(#cpMjguOHw0ODkuNnwyNTkuMnwxNC40)"
     id="line130" />
  <line
     x1="281.03"
     y1="259.20001"
     x2="281.03"
     y2="14.4"
     style="fill:none;stroke:#4d4d4d;stroke-width:0.75;stroke-linecap:round;stroke-linejoin:round;stroke-miterlimit:10;stroke-dasharray:4, 4"
     clip-path="url(#cpMjguOHw0ODkuNnwyNTkuMnwxNC40)"
     id="line132" />
  <line
     x1="378.04001"
     y1="259.20001"
     x2="378.04001"
     y2="14.4"
     style="fill:none;stroke:#4d4d4d;stroke-width:0.75;stroke-linecap:round;stroke-linejoin:round;stroke-miterlimit:10;stroke-dasharray:4, 4"
     clip-path="url(#cpMjguOHw0ODkuNnwyNTkuMnwxNC40)"
     id="line134" />
  <line
     x1="436.23999"
     y1="259.20001"
     x2="436.23999"
     y2="14.4"
     style="fill:none;stroke:#4d4d4d;stroke-width:0.75;stroke-linecap:round;stroke-linejoin:round;stroke-miterlimit:10;stroke-dasharray:4, 4"
     clip-path="url(#cpMjguOHw0ODkuNnwyNTkuMnwxNC40)"
     id="line136" />
  <defs
     id="defs142">
    <clipPath
       id="clipPath140">
      <rect
         x="0"
         y="0"
         width="504"
         height="288"
         id="rect138"
         style="fill:none;stroke:#000000;stroke-linecap:round;stroke-linejoin:round;stroke-miterlimit:10" />
    </clipPath>
  </defs>
  <g
     clip-path="url(#cpMHw1MDR8Mjg4fDA=)"
     id="g146">
    <text
       x="28.799999"
       y="11.52"
       style="font-size:12px;font-family:'Liberation Sans'"
       textLength="362.22"
       lengthAdjust="spacingAndGlyphs"
       id="text144">Pickup in core Manhattan, Spring 2013 , % change on previous year</text>
  </g>
  <g
     clip-path="url(#cpMHw1MDR8Mjg4fDA=)"
     id="g150">
    <text
       x="28.799999"
       y="25.92"
       style="font-size:12px;font-family:'Liberation Sans'"
       textLength="179.42999"
       lengthAdjust="spacingAndGlyphs"
       id="text148">15-minute average with IQR band</text>
  </g>
  <defs
     id="defs156">
    <clipPath
       id="clipPath154">
      <rect
         x="28.799999"
         y="14.4"
         width="460.79999"
         height="244.8"
         id="rect152"
         style="fill:none;stroke:#000000;stroke-linecap:round;stroke-linejoin:round;stroke-miterlimit:10" />
    </clipPath>
  </defs>
  <line
     x1="291.82999"
     y1="176.94"
     x2="313.42999"
     y2="176.94"
     style="fill:none;stroke:#ffa500;stroke-width:1.5;stroke-linecap:round;stroke-linejoin:round;stroke-miterlimit:10"
     clip-path="url(#cpMjguOHw0ODkuNnwyNTkuMnwxNC40)"
     id="line158" />
  <line
     x1="291.82999"
     y1="191.34"
     x2="313.42999"
     y2="191.34"
     style="fill:none;stroke:#0000ff;stroke-width:1.5;stroke-linecap:round;stroke-linejoin:round;stroke-miterlimit:10"
     clip-path="url(#cpMjguOHw0ODkuNnwyNTkuMnwxNC40)"
     id="line160" />
  <line
     x1="291.82999"
     y1="205.74001"
     x2="313.42999"
     y2="205.74001"
     style="fill:none;stroke:#00ff00;stroke-width:1.5;stroke-linecap:round;stroke-linejoin:round;stroke-miterlimit:10"
     clip-path="url(#cpMjguOHw0ODkuNnwyNTkuMnwxNC40)"
     id="line162" />
  <line
     x1="291.82999"
     y1="220.14"
     x2="313.42999"
     y2="220.14"
     style="fill:none;stroke:#ff0000;stroke-width:1.5;stroke-linecap:round;stroke-linejoin:round;stroke-miterlimit:10"
     clip-path="url(#cpMjguOHw0ODkuNnwyNTkuMnwxNC40)"
     id="line164" />
  <line
     x1="291.82999"
     y1="234.53999"
     x2="313.42999"
     y2="234.53999"
     style="fill:none;stroke:#000000;stroke-width:1.5;stroke-linecap:round;stroke-linejoin:round;stroke-miterlimit:10"
     clip-path="url(#cpMjguOHw0ODkuNnwyNTkuMnwxNC40)"
     id="line166" />
  <g
     clip-path="url(#cpMjguOHw0ODkuNnwyNTkuMnwxNC40)"
     id="g170">
    <text
       x="324.23001"
       y="181.07001"
       style="font-size:12px;font-family:'Liberation Sans'"
       textLength="13.99"
       lengthAdjust="spacingAndGlyphs"
       id="text168">Fri</text>
  </g>
  <g
     clip-path="url(#cpMjguOHw0ODkuNnwyNTkuMnwxNC40)"
     id="g174">
    <text
       x="324.23001"
       y="195.47"
       style="font-size:12px;font-family:'Liberation Sans'"
       textLength="20.68"
       lengthAdjust="spacingAndGlyphs"
       id="text172">Thu</text>
  </g>
  <g
     clip-path="url(#cpMjguOHw0ODkuNnwyNTkuMnwxNC40)"
     id="g178">
    <text
       x="324.23001"
       y="209.87"
       style="font-size:12px;font-family:'Liberation Sans'"
       textLength="24.67"
       lengthAdjust="spacingAndGlyphs"
       id="text176">Wed</text>
  </g>
  <g
     clip-path="url(#cpMjguOHw0ODkuNnwyNTkuMnwxNC40)"
     id="g182">
    <text
       x="324.23001"
       y="224.27"
       style="font-size:12px;font-family:'Liberation Sans'"
       textLength="20.68"
       lengthAdjust="spacingAndGlyphs"
       id="text180">Tue</text>
  </g>
  <g
     clip-path="url(#cpMjguOHw0ODkuNnwyNTkuMnwxNC40)"
     id="g186">
    <text
       x="324.23001"
       y="238.67"
       style="font-size:12px;font-family:'Liberation Sans'"
       textLength="23.34"
       lengthAdjust="spacingAndGlyphs"
       id="text184">Mon</text>
  </g>
</svg>
